Coordinates
version=1
nRows=16
nColumns=40
inDegrees=yes

Units are S.I. units (second, meters, Newtons, ...)
If the header above contains a line with 'inDegrees', this indicates whether rotational values are in degrees (yes) or radians (no).

endheader
time	pelvis_tilt	pelvis_list	pelvis_rotation	pelvis_tx	pelvis_ty	pelvis_tz	hip_flexion_r	hip_adduction_r	hip_rotation_r	knee_angle_r	knee_angle_r_beta	ankle_angle_r	subtalar_angle_r	mtp_angle_r	hip_flexion_l	hip_adduction_l	hip_rotation_l	knee_angle_l	knee_angle_l_beta	ankle_angle_l	subtalar_angle_l	mtp_angle_l	lumbar_extension	lumbar_bending	lumbar_rotation	arm_flex_r	arm_add_r	arm_rot_r	elbow_flex_r	pro_sup_r	wrist_flex_r	wrist_dev_r	arm_flex_l	arm_add_l	arm_rot_l	elbow_flex_l	pro_sup_l	wrist_flex_l	wrist_dev_l
      1.43000000	     -2.67511007	     13.05486588	    -86.00626175	      0.21234147	      0.91692995	      0.36137036	     17.86155006	      8.52189414	      1.13487707	      6.83889904	      0.11936131	      3.52325693	      0.00000000	      0.00000000	     27.57941481	     -3.58150033	      5.85211266	     58.16517819	      1.01517387	      1.30888044	      0.00000000	      0.00000000	     10.62641016	     -0.64713070	      2.78121277	      0.00000000	      0.00000000	      0.00000000	      0.00000000	      0.00000000	      0.00000000	      0.00000000	      0.00000000	      0.00000000	      0.00000000	      0.00000000	      0.00000000	      0.00000000	      0.00000000
      1.44000000	     -2.56706710	     13.00307510	    -86.06789127	      0.21217548	      0.91722842	      0.36934235	     16.98162877	      8.49918253	      1.43047562	      6.37095436	      0.11119413	      3.83427944	      0.00000000	      0.00000000	     28.67893057	     -3.50983796	      5.82129862	     57.55270129	      1.00448413	      2.49902992	      0.00000000	      0.00000000	     10.53857717	     -0.74565790	      2.98743017	      0.00000000	      0.00000000	      0.00000000	      0.00000000	      0.00000000	      0.00000000	      0.00000000	      0.00000000	      0.00000000	      0.00000000	      0.00000000	      0.00000000	      0.00000000	      0.00000000
      1.45000000	     -2.44928160	     12.88323422	    -86.14640891	      0.21203257	      0.91757390	      0.37730867	     15.99893594	      8.46886382	      1.75281848	      5.85467094	      0.10218328	      4.11161506	      0.00000000	      0.00000000	     29.64701472	     -3.43459486	      5.74205431	     56.74956112	      0.99046669	      3.53972102	      0.00000000	      0.00000000	     10.37019384	     -0.83007485	      3.20254502	      0.00000000	      0.00000000	      0.00000000	      0.00000000	      0.00000000	      0.00000000	      0.00000000	      0.00000000	      0.00000000	      0.00000000	      0.00000000	      0.00000000	      0.00000000	      0.00000000
      1.46000000	     -2.30972538	     12.80944568	    -86.22520715	      0.21192800	      0.91779483	      0.38517509	     15.08270548	      8.40486763	      2.06984125	      5.35450297	      0.09345371	      4.41152912	      0.00000000	      0.00000000	     30.61348658	     -3.30933031	      5.65494477	     55.76041539	      0.97320284	      4.42397596	      0.00000000	      0.00000000	     10.23665496	     -0.94406996	      3.38431526	      0.00000000	      0.00000000	      0.00000000	      0.00000000	      0.00000000	      0.00000000	      0.00000000	      0.00000000	      0.00000000	      0.00000000	      0.00000000	      0.00000000	      0.00000000	      0.00000000
      1.47000000	     -2.16302547	     12.73733152	    -86.31059262	      0.21187109	      0.91795021	      0.39295922	     14.18013016	      8.32625693	      2.39506538	      4.87079171	      0.08501135	      4.71228630	     -0.00000000	      0.00000000	     31.52801120	     -3.16186105	      5.54808063	     54.59771001	      0.95290980	      5.16668884	     -0.00000000	      0.00000000	     10.08362001	     -1.05094224	      3.54871479	      0.00000000	      0.00000000	      0.00000000	      0.00000000	      0.00000000	     -0.00000000	     -0.00000000	      0.00000000	     -0.00000000	     -0.00000000	      0.00000000	      0.00000000	      0.00000000	     -0.00000000
      1.48000000	     -2.00831874	     12.73460377	    -86.38785106	      0.21189064	      0.91791892	      0.40064755	     13.38027134	      8.21978268	      2.64551954	      4.42139358	      0.07716788	      5.03898884	      0.00000000	      0.00000000	     32.47629415	     -2.96690617	      5.45078041	     53.29485980	      0.93017078	      5.75411202	      0.00000000	      0.00000000	     10.00639408	     -1.17267713	      3.69752637	      0.00000000	      0.00000000	      0.00000000	      0.00000000	      0.00000000	      0.00000000	      0.00000000	      0.00000000	      0.00000000	      0.00000000	      0.00000000	      0.00000000	      0.00000000	      0.00000000
      1.49000000	     -2.06024289	     12.81259545	    -86.44146904	      0.21177738	      0.91761352	      0.40811614	     12.87939101	      8.31895072	      2.42776434	      4.31357262	      0.07528604	      5.19334320	      0.00000000	      0.00000000	     33.52307897	     -2.99821446	      5.36273388	     51.89468570	      0.90573313	      5.95492229	      0.00000000	      0.00000000	     10.00560958	     -1.05417079	      3.73634736	      0.00000000	      0.00000000	      0.00000000	      0.00000000	      0.00000000	      0.00000000	      0.00000000	      0.00000000	      0.00000000	      0.00000000	      0.00000000	      0.00000000	      0.00000000	      0.00000000
      1.50000000	     -1.71848288	     12.42775879	    -86.60441207	      0.21185571	      0.91806886	      0.41612449	     11.42320271	      8.06056989	      3.33790542	      3.47606574	      0.06066879	      5.61589556	      0.00000000	      0.00000000	     33.84243145	     -2.63898341	      5.10809992	     50.21215155	      0.87636737	      6.59310937	      0.00000000	      0.00000000	      9.44525233	     -1.34282728	      3.98702701	      0.00000000	      0.00000000	      0.00000000	      0.00000000	      0.00000000	      0.00000000	      0.00000000	      0.00000000	      0.00000000	      0.00000000	      0.00000000	      0.00000000	      0.00000000	      0.00000000
      1.51000000	     -1.58293839	     12.35285796	    -86.73498569	      0.21186721	      0.91790450	      0.42372858	     10.59269298	      7.97764741	      3.69215720	      3.11180327	      0.05431121	      5.98575862	      0.00000000	      0.00000000	     34.54113482	     -2.44951215	      4.94008770	     48.50013970	      0.84648713	      6.85607742	      0.00000000	      0.00000000	      9.23912657	     -1.40776576	      4.15210459	      0.00000000	      0.00000000	      0.00000000	      0.00000000	      0.00000000	      0.00000000	      0.00000000	      0.00000000	      0.00000000	      0.00000000	      0.00000000	      0.00000000	      0.00000000	      0.00000000
      1.52000000	     -1.72651684	     12.46822766	    -86.78313724	      0.21180286	      0.91720865	      0.43100179	     10.19214790	      8.16341643	      3.44194091	      3.07850207	      0.05373000	      6.11720839	      0.00000000	      0.00000000	     35.53806651	     -2.51673651	      4.87628700	     46.85062307	      0.81769763	      6.94355099	      0.00000000	      0.00000000	      9.23728639	     -1.16954670	      4.13697940	      0.00000000	      0.00000000	      0.00000000	      0.00000000	      0.00000000	      0.00000000	      0.00000000	      0.00000000	      0.00000000	      0.00000000	      0.00000000	      0.00000000	      0.00000000	      0.00000000
      1.53000000	     -1.34498147	     12.11722039	    -86.97807223	      0.21196545	      0.91739784	      0.43896525	      8.85501200	      7.82835605	      4.28372216	      2.40238955	      0.04192961	      6.67161927	      0.00000000	      0.00000000	     35.69089434	     -2.05573649	      4.63198691	     44.77714403	      0.78150859	      6.95634025	      0.00000000	      0.00000000	      8.70526440	     -1.50079540	      4.39655423	      0.00000000	      0.00000000	      0.00000000	      0.00000000	      0.00000000	      0.00000000	      0.00000000	      0.00000000	      0.00000000	      0.00000000	      0.00000000	      0.00000000	      0.00000000	      0.00000000
      1.54000000	     -1.54603993	     12.24624880	    -87.03020590	      0.21190382	      0.91646108	      0.44622844	      8.47976489	      8.07094550	      4.03215381	      2.39139067	      0.04173764	      6.79524182	      0.00000000	      0.00000000	     36.62892754	     -2.15257571	      4.58311237	     43.00469218	      0.75057347	      6.99613829	      0.00000000	      0.00000000	      8.70003048	     -1.19247506	      4.36386947	      0.00000000	      0.00000000	      0.00000000	      0.00000000	      0.00000000	      0.00000000	      0.00000000	      0.00000000	      0.00000000	      0.00000000	      0.00000000	      0.00000000	      0.00000000	      0.00000000
      1.55000000	     -1.16299797	     11.87082024	    -87.21911492	      0.21213121	      0.91652572	      0.45417270	      7.16008549	      7.71474215	      4.81714221	      1.79041965	      0.03124872	      7.38620686	      0.00000000	      0.00000000	     36.62768500	     -1.63629871	      4.42331130	     40.72327755	      0.71075528	      6.58695542	      0.00000000	      0.00000000	      8.13045742	     -1.52587357	      4.60916083	      0.00000000	      0.00000000	      0.00000000	      0.00000000	      0.00000000	      0.00000000	      0.00000000	      0.00000000	      0.00000000	      0.00000000	      0.00000000	      0.00000000	      0.00000000	      0.00000000
      1.56000000	     -1.37549891	     12.00046438	    -87.28015292	      0.21208406	      0.91540501	      0.46149260	      6.76304357	      7.96711233	      4.61790195	      1.74101045	      0.03038636	      7.54206111	      0.00000000	     -0.00000000	     37.46743229	     -1.71220667	      4.40728894	     38.84132149	      0.67790895	      6.57130407	     -0.00000000	      0.00000000	      8.13379809	     -1.20913561	      4.58683136	     -0.00000000	     -0.00000000	     -0.00000000	      0.00000000	      0.00000000	     -0.00000000	      0.00000000	      0.00000000	      0.00000000	     -0.00000000	      0.00000000	      0.00000000	      0.00000000	     -0.00000000
      1.57000000	     -1.04387718	     11.60155072	    -87.43020814	      0.21236672	      0.91529413	      0.46946298	      5.45069720	      7.64544116	      5.27824092	      1.19885773	      0.02092401	      8.07043733	      0.00000000	      0.00000000	     37.34406671	     -1.19525557	      4.36492600	     36.43267332	      0.63587010	      5.85580749	      0.00000000	      0.00000000	      7.51829215	     -1.48817129	      4.73767849	      0.00000000	      0.00000000	      0.00000000	      0.00000000	      0.00000000	      0.00000000	      0.00000000	      0.00000000	      0.00000000	      0.00000000	      0.00000000	      0.00000000	      0.00000000	      0.00000000
      1.58000000	     -1.01061022	     11.51886429	    -87.52812786	      0.21248471	      0.91444477	      0.47711133	      4.66940217	      7.63095270	      5.47463268	      0.93805046	      0.01637207	      8.44653758	      0.00000000	      0.00000000	     37.69625426	     -0.97608637	      4.38314996	     34.23425542	      0.59750047	      5.36307870	      0.00000000	      0.00000000	      7.27173956	     -1.45192223	      4.78657462	      0.00000000	      0.00000000	      0.00000000	      0.00000000	      0.00000000	      0.00000000	      0.00000000	      0.00000000	      0.00000000	      0.00000000	      0.00000000	      0.00000000	      0.00000000	      0.00000000
